<?xml version="1.0" encoding="utf-8"?>
<!-- Generator: Adobe Illustrator 25.2.1, SVG Export Plug-In . SVG Version: 6.00 Build 0)  -->
<svg version="1.1" id="Layer_1" xmlns="http://www.w3.org/2000/svg" xmlns:xlink="http://www.w3.org/1999/xlink" x="0px" y="0px"
	 viewBox="0 0 163 192" style="enable-background:new 0 0 163 192;" xml:space="preserve">
<style type="text/css">
	.st0{fill:#FF5A00;}
	.st1{fill:#BF4300;}
	.st2{fill:#E4EAF6;}
	.st3{opacity:0.1;fill:#421700;}
</style>
<g>
	<path class="st0" d="M25.2,171.5L67.4,9.1c0.4-1.5,1.7-2.5,3.2-2.5h21.3c1.5,0,2.8,1,3.2,2.5l42.2,162.3"/>
	<path class="st1" d="M153.7,171.5H8.7c-1.8,0-3.3,1.5-3.3,3.3v6.6c0,1.8,1.5,3.3,3.3,3.3h145c1.8,0,3.3-1.5,3.3-3.3v-6.6
		C157,172.9,155.5,171.5,153.7,171.5L153.7,171.5z"/>
	<polygon class="st2" points="33.7,138.5 128.7,138.5 123.5,118.7 38.9,118.7 33.7,138.5 	"/>
	<polygon class="st2" points="50.9,72.6 111.5,72.6 106.4,52.8 56,52.8 50.9,72.6 	"/>
	<path class="st3" d="M29.7,181.4v-6.6c0-1.8,1.5-3.3,3.3-3.3h16.5l8.6-33h0l5.1-19.8l0,0l12-46.1h0l1-4L91.7,9.1
		c0.2-0.9,0.9-1.7,1.7-2.1c-0.5-0.2-1-0.4-1.5-0.4H70.6c-1.5,0-2.8,1-3.2,2.5L51.9,68.6l-1,4l0,0l-12,46.1l0,0l-5.1,19.8l0,0
		l-8.6,33H8.7c-1.8,0-3.3,1.5-3.3,3.3v6.6c0,1.8,1.5,3.3,3.3,3.3H33C31.2,184.7,29.7,183.2,29.7,181.4z"/>
</g>
</svg>
