<?xml version="1.0" encoding="utf-8"?>
<!-- Generator: Adobe Illustrator 25.1.0, SVG Export Plug-In . SVG Version: 6.00 Build 0)  -->
<svg version="1.1" id="Layer_1" xmlns="http://www.w3.org/2000/svg" xmlns:xlink="http://www.w3.org/1999/xlink" x="0px" y="0px"
	 viewBox="0 0 512 512" style="enable-background:new 0 0 512 512;" xml:space="preserve">
<style type="text/css">
	.st0{fill:#F6DF7F;}
	.st1{fill:#EFD06F;}
	.st2{fill:#BEE49D;}
	.st3{fill:#A3D8A4;}
	.st4{fill:#CE9775;}
	.st5{fill:#C6855B;}
	.st6{fill:#EBC56A;}
	.st7{fill:#EBF4FF;}
	.st8{fill:#DCEAFC;}
</style>
<g>
	<g>
		<g>
			<g>
				<g>
					<path class="st0" d="M412,512V409.8c0-25-16-47.3-39.7-55.3l-71.8-24.2l-27.6-4.2c-7.9-2.7-13.2-10.1-13.2-18.4v-31.7h-71.5
						v31.7c0,8.3-5.3,15.8-13.2,18.4l-84.4,28.4c-23.7,8-39.7,30.2-39.7,55.3V502c0,5.5,4.5,10,10,10L412,512z"/>
					<g>
						<path class="st1" d="M293.1,353l49.2,16.5c23.7,8,39.7,30.2,39.7,55.3V512h30V409.8c0-25-16-47.3-39.7-55.3l-71.8-24.2
							c-1.2,4.2-2.5,8.5-4,13C295.3,346.7,294.2,349.9,293.1,353z"/>
					</g>
					<path class="st2" d="M300.4,330.4c-4.5,16.6-12.6,39.5-27.9,63.9c-13.1,20.9-27.4,36.5-39.1,47.4c-1.1,1.1-2.9,1.1-4,0.1
						c-11.6-10.2-26.1-25.2-39.3-45.9c-16.1-25.3-23.8-49.1-27.8-65.5H300.4z"/>
					<path class="st3" d="M300.4,330.4h-54.2c2.1,5,6.3,9,11.7,10.8L293,353C296.2,344.7,298.6,337,300.4,330.4L300.4,330.4z"/>
					<path class="st4" d="M231.3,360.8c27.3,0,51.9-11.7,69.1-30.4l-27.6-4.2c-7.9-2.7-13.2-10.1-13.2-18.4v-31.7h-71.5v31.7
						c0,8.3-5.3,15.8-13.2,18.4l-12.6,4.2C179.4,349.1,204,360.8,231.3,360.8L231.3,360.8z"/>
					<path class="st5" d="M257.8,341.2l20.6,6.9c8.2-4.8,15.6-10.8,22-17.7l-12.6-4.2c-3.6-1.3-10.2-5-12.3-12.4c-0.6-1.9-1-3.9-1-6
						v-31.7h-30v46.7C244.6,331.1,249.9,338.5,257.8,341.2L257.8,341.2z"/>
					<path class="st2" d="M412,512V409.8c0-22.4-12.8-42.6-32.6-52.3l-25.6,28.6c-8.4,9.4-13.1,21.6-13.1,34.3V512H412z"/>
					<g>
						<path class="st3" d="M411.9,407.6c-0.6-20.2-12.7-40.4-32.5-50.1c0,0,0,0,0,0L360,379.2c13.6,10.8,22,27.5,22,45.6V512h30
							V409.8C412,409.1,411.9,408.3,411.9,407.6L411.9,407.6z"/>
					</g>
					<path class="st2" d="M60.7,512c-5.5,0-10-4.5-10-10v-92.2c0-22.4,12.8-42.6,32.6-52.3l25.6,28.6c8.4,9.4,13.1,21.6,13.1,34.3
						V512H60.7z"/>
				</g>
			</g>
			<g>
				<path class="st4" d="M231.3,308.8c-15.6,0-30.3,1-43.3-5.6c-31.4-15.8-52.9-48.4-52.9-86v-58.6h192.4v58.6
					c0,37.6-21.5,70.1-52.9,86C261.6,309.8,231.3,308.8,231.3,308.8z"/>
				<path class="st5" d="M297.5,158.8v58.6c0.2,6.5,0.5,37.9-23.3,62.8c-21.5,22.5-54.5,31.1-86.1,23.1c8.4,4.2,19.7,8.3,33.4,9.8
					c3.5,0.4,6.8,0.5,9.9,0.5c53.1,0,96.2-43.1,96.2-96.2v-58.6L297.5,158.8L297.5,158.8z"/>
				<path class="st4" d="M334.1,218h-6.6v-37.2h6.6c10.3,0,18.6,8.3,18.6,18.6C352.8,209.6,344.4,218,334.1,218z"/>
				<path class="st5" d="M128.6,218h6.6v-37.2h-6.6c-10.3,0-18.6,8.3-18.6,18.6C109.9,209.6,118.3,218,128.6,218z"/>
				<g>
					<path class="st1" d="M324.6,188.7H138.1c-12.4,0-22.4-10-22.4-22.4s10-22.4,22.4-22.4h186.4c12.4,0,22.4,10,22.4,22.4
						S336.9,188.7,324.6,188.7z"/>
					<path class="st6" d="M324.6,144h-30c12.4,0,22.4,10,22.4,22.4s-10,22.4-22.4,22.4h30c12.4,0,22.4-10,22.4-22.4
						C346.9,154,336.9,144,324.6,144z"/>
					<path class="st0" d="M252.3,32.1h-41.8c-39.9,0-72.3,32.4-72.3,72.3V144h186.4v-39.5C324.6,64.5,292.2,32.1,252.3,32.1z"/>
					<path class="st1" d="M252.3,32.1h-30c39.9,0,72.3,32.4,72.3,72.3V144h30v-39.5C324.6,64.5,292.2,32.1,252.3,32.1z"/>
					<path class="st1" d="M197,91.5V28.4c0-11.5,9.3-20.9,20.9-20.9h26.8c11.5,0,20.9,9.3,20.9,20.9v63.1c0,2.2-1.8,4-4,4H201
						C198.8,95.5,197,93.7,197,91.5L197,91.5z"/>
					<path class="st6" d="M244.8,7.5h-26.8c-0.5,0-1.1,0-1.6,0.1c10.8,0.8,19.3,9.8,19.3,20.8v67.1h26c2.2,0,4-1.8,4-4V28.4
						C265.7,16.8,256.3,7.5,244.8,7.5L244.8,7.5z"/>
				</g>
			</g>
		</g>
		<g>
			<g>
				<path class="st7" d="M402.8,478.2v-84.6c0-1.5-0.8-2.9-2-3.7c-12.2-8.2-20.3-22.4-20.3-38.5c0-15.2,7.2-28.7,18.3-37.1
					c1.6-1.2,3.9,0,3.9,2v25.1c0,4.4,3.5,7.9,7.7,7.9h20.7c4.3,0,7.7-3.5,7.7-7.9v-25.1c0-2.1,2.3-3.3,3.9-2
					c11.1,8.4,18.3,21.9,18.3,37.1c0,16.1-8.1,30.2-20.3,38.5c-1.2,0.8-2,2.2-2,3.7v84.6H402.8z"/>
				<g>
					<path class="st8" d="M443,314.3c-1.6-1.2-3.9,0-3.9,2v21.9c1.2,4.2,1.9,8.6,1.9,13.1c0,16.1-8.1,30.2-20.3,38.5
						c-1.2,0.8-2,2.2-2,3.7v84.6H439v-84.6c0-1.5,0.8-2.9,2-3.7c12.2-8.2,20.3-22.4,20.3-38.5C461.3,336.2,454.1,322.7,443,314.3
						L443,314.3z"/>
				</g>
				<path class="st4" d="M433.6,504.5h-41.3c-6.4,0-11.6-5.2-11.6-11.6v-57.1c0-6.4,5.2-11.6,11.6-11.6h41.3
					c15.2,0,27.4,12.3,27.4,27.4v25.4C461.1,492.2,448.8,504.5,433.6,504.5L433.6,504.5z"/>
				<path class="st5" d="M433.6,424.2h-30c15.2,0,27.4,12.3,27.4,27.4v25.4c0,15.2-12.3,27.4-27.4,27.4h30
					c15.2,0,27.4-12.3,27.4-27.4v-25.4C461.1,436.5,448.8,424.2,433.6,424.2z"/>
			</g>
		</g>
	</g>
	<path d="M446.5,419.2v-24c14-10.1,22.2-26.3,22.2-43.8c0-16.9-8-33-21.3-43.1c-3-2.3-7-2.7-10.4-1c-3.4,1.7-5.6,5.1-5.6,9v25.1
		c0,0.3-0.2,0.4-0.2,0.4h-20.7c-0.1,0-0.2-0.1-0.2-0.4v-25.1c0-3.8-2.1-7.3-5.5-9c-3.4-1.7-7.4-1.3-10.4,1
		c-12.2,9.2-19.9,23.4-21.1,38.7l-83.1-28c-4.9-1.6-8.1-6.2-8.1-11.3v0c29.4-16.5,49.9-47,52.6-82.3c13.9-0.2,25.5-12.2,25.5-26.1
		c0-7.6-3.4-14.8-9-19.7c2-4,3.2-8.6,3.2-13.3c0-13.9-9.5-25.6-22.4-28.9v-33c0-36.3-24.4-67.7-58.9-77C272.6,12.2,260.1,0,244.8,0
		h-26.8c-15.3,0-27.8,12.2-28.4,27.4c-34.5,9.3-58.9,40.7-58.9,77v33c-12.9,3.3-22.4,15-22.4,28.9c0,4.8,1.1,9.3,3.2,13.3
		c-5.6,4.9-9,12-9,19.7c0,13.9,11.5,25.9,25.5,26.1c2.7,35.3,23.3,65.7,52.6,82.3v0c0,5.1-3.3,9.7-8.1,11.3l-84.4,28.4
		c-27.3,9.3-44.3,33.9-44.8,62.4v94.7c0,4.1,3.4,7.5,7.5,7.5h0c4.1,0,7.5-3.4,7.5-7.5v-94.7c0.3-17.2,8.8-33.5,23.5-42.8l21.6,24.1
		c7.2,8.1,11.2,18.5,11.2,29.3v84.1c0,4.1,3.4,7.5,7.5,7.5s7.5-3.4,7.5-7.5v-23h94.3v23c0,4.1,3.4,7.5,7.5,7.5s7.5-3.4,7.5-7.5v-23
		h94.3v23c0,4.1,3.4,7.5,7.5,7.5s7.5-3.4,7.5-7.5v-84.1c0-10.8,4-21.2,11.2-29.3l17.6-19.6c3.7,9.4,10,17.6,18.4,23.7v21.6
		c-11.6-1.3-22.1,7.3-22.1,19.1v57.1c0,10.5,8.6,19.1,19.1,19.1h41.3c19.3,0,34.9-15.7,34.9-34.9v-25.4
		C468.6,436.9,459.4,424.3,446.5,419.2L446.5,419.2z M345.2,199.3c0,5.7-4.5,10.6-10.2,11.1v-16.1c2.3-0.9,4.4-2,6.4-3.3
		C343.8,193.1,345.2,196.1,345.2,199.3L345.2,199.3z M127.6,210.4c-5.7-0.4-10.2-5.4-10.2-11.1c0-3.3,1.4-6.3,3.8-8.4
		c2,1.4,4.1,2.5,6.4,3.3V210.4z M123.3,166.3c0-8.3,6.7-14.8,14.9-14.9h99.5c4.1,0,7.5-3.4,7.5-7.5s-3.4-7.5-7.5-7.5h-92.1v-32
		c0-28.1,18-52.6,43.9-61.4v45c0,4.1,3.4,7.5,7.5,7.5s7.5-3.4,7.5-7.5V28.4c0-7.4,6-13.4,13.4-13.4h26.8c7.4,0,13.4,6,13.4,13.4V88
		c0,4.1,3.4,7.5,7.5,7.5s7.5-3.4,7.5-7.5v-45c25.9,8.8,43.9,33.3,43.9,61.4v32h-44.3c-4.1,0-7.5,3.4-7.5,7.5s3.4,7.5,7.5,7.5
		c0.1,0,51.8,0,51.9,0c8.2,0,14.8,6.7,14.8,14.9c0,8.2-6.7,14.9-14.9,14.9H138.1C129.9,181.2,123.3,174.6,123.3,166.3L123.3,166.3z
		 M142.6,217.3v-21.1H320v21.1c0,48.9-39.8,88.7-88.7,88.7S142.6,266.2,142.6,217.3L142.6,217.3z M194.8,314.4
		c11.4,4.3,23.7,6.7,36.6,6.7s25.2-2.4,36.6-6.7c2.3,9,9.1,16.3,18.3,19.2c-15.3,12.7-34.8,19.8-54.9,19.8s-39.5-7.1-54.9-19.8
		C185.6,330.6,192.5,323.4,194.8,314.4L194.8,314.4z M231.2,433.4c-10-9.2-19.1-19.3-27.1-30.2c-2.5-3.3-7.1-4.1-10.5-1.6
		s-4.1,7.1-1.6,10.5c9.3,12.7,20,24.4,31.8,34.9v19.6h-94.3v-46.2c0-14.5-5.3-28.5-15-39.3l-18.4-20.5l61-20.5
		c4,14.2,9.3,28,16,41.1c1.9,3.7,6.5,5.1,10.1,3.3c3.7-1.9,5.2-6.4,3.3-10.1c-3.6-7.2-6.9-14.5-9.6-22.1c16.2,10.3,35.1,16,54.6,16
		c19.1,0,37.8-5.5,53.8-15.5c-5.2,13.1-11.5,25.6-19,37.6C256.3,406,244.6,420.5,231.2,433.4L231.2,433.4z M348.2,381.1
		c-9.7,10.8-15,24.8-15,39.3v46.2h-94.4v-19.7c15.4-14.4,28.8-30.7,40-48.5c11.4-18.2,20.3-37.8,26.6-58.3l61.2,20.6L348.2,381.1z
		 M388.1,351.4c0-8.2,2.6-16.2,7.2-22.7v12.8c0,8.5,6.8,15.4,15.2,15.4h20.7c8.4,0,15.2-6.9,15.2-15.4v-12.9
		c4.7,6.5,7.2,14.4,7.2,22.8c0,13-6.3,25.1-17,32.3c-3.3,2.2-5.3,5.9-5.3,9.9v23.1h-21.2v-23.1c0-4-2-7.7-5.3-9.9
		C394.4,376.5,388.1,364.4,388.1,351.4L388.1,351.4z M453.6,477.1c0,11-8.9,19.9-19.9,19.9h-41.3c-2.2,0-4.1-1.8-4.1-4.1v-57.1
		c0-2.2,1.8-4.1,4.1-4.1h41.3c11,0,19.9,8.9,19.9,19.9V477.1z M249.3,279.5c3.4-2.4,4.2-7.1,1.8-10.5c-2.4-3.4-7.1-4.2-10.5-1.8
		c-1.5,1-4.5,2.8-8.6,3c-4.7,0.2-8.1-1.8-9.8-3c-3.4-2.4-8.1-1.6-10.5,1.8c-2.4,3.4-1.6,8.1,1.8,10.5c3.1,2.2,9.4,5.7,17.9,5.7
		C238.8,285.3,245.7,282,249.3,279.5L249.3,279.5z M187.5,204.7c-4.1,0-7.5,3.4-7.5,7.5v15.5c0,4.1,3.4,7.5,7.5,7.5s7.5-3.4,7.5-7.5
		v-15.5C195,208,191.6,204.7,187.5,204.7z M275.2,235.2c4.1,0,7.5-3.4,7.5-7.5v-15.5c0-4.1-3.4-7.5-7.5-7.5s-7.5,3.4-7.5,7.5v15.5
		C267.7,231.8,271.1,235.2,275.2,235.2z"/>
</g>
</svg>
