<svg id="Layer_1" data-name="Layer 1" xmlns="http://www.w3.org/2000/svg" xmlns:xlink="http://www.w3.org/1999/xlink" viewBox="0 0 775 664"><defs><style>.cls-1{fill:none;}.cls-2{clip-path:url(#clip-path);}.cls-3{fill:url(#linear-gradient);}.cls-4{fill:#26262b;}.cls-5,.cls-6{fill:#fff;}.cls-6{font-size:150.64px;font-family:Bauhaus-Light, Bauhaus;font-weight:300;}</style><clipPath id="clip-path"><rect class="cls-1" x="998" y="3" width="313" height="500"/></clipPath><linearGradient id="linear-gradient" x1="330.5" y1="609" x2="330.5" y2="261" gradientUnits="userSpaceOnUse"><stop offset="0" stop-color="#4f9aff"/><stop offset="0.03" stop-color="#5496ff"/><stop offset="0.22" stop-color="#6c82ff"/><stop offset="0.34" stop-color="#757bff"/><stop offset="0.49" stop-color="#8072ff"/><stop offset="0.74" stop-color="#8b68ff"/><stop offset="1" stop-color="#8f65ff"/></linearGradient></defs><title>logo</title><g id="inspo"><g class="cls-2"><image width="640" height="500" transform="translate(671 3)" xlink:href="../../../../LoFM/_mockup/h9rUppxznDIUVzFX8g9HsjfDjksT_-HHXtKjxU0uEW0.jpg"/></g></g><rect class="cls-3" x="121" y="261" width="419" height="348"/><path class="cls-4" d="M622,238H133a38,38,0,0,0-38,38V603.3a38,38,0,0,0,38,38H622a38,38,0,0,0,38-38V276A38,38,0,0,0,622,238ZM540,552.75a33.57,33.57,0,0,1-33.58,33.58H166.91a33.58,33.58,0,0,1-33.58-33.58V306.58A33.58,33.58,0,0,1,166.91,273H506.42A33.57,33.57,0,0,1,540,306.58Z"/><circle class="cls-5" cx="602.5" cy="328.5" r="35.5"/><circle class="cls-5" cx="602.5" cy="415.5" r="35.5"/><rect class="cls-5" x="560" y="490" width="82" height="8"/><rect class="cls-5" x="560" y="504" width="82" height="8"/><rect class="cls-5" x="560" y="518" width="82" height="8"/><rect class="cls-5" x="560" y="532" width="82" height="8"/><rect class="cls-5" x="560" y="546" width="82" height="8"/><rect class="cls-5" x="560" y="560" width="82" height="8"/><text class="cls-6" transform="translate(166.03 477.45)">Lo.FM</text><rect class="cls-4" x="453.99" y="136.45" width="227.39" height="15.52" transform="translate(930.96 -315.25) rotate(114.08)"/><polygon class="cls-4" points="573 249 444 249 486.26 228 538.53 228 573 249"/><rect class="cls-4" x="341.18" y="136.7" width="227.39" height="15.52" transform="translate(401.18 -329.77) rotate(65.92)"/><rect class="cls-4" x="601.72" y="31.33" width="27.31" height="13" rx="6.5" transform="translate(68.97 -247.76) rotate(24.08)"/><rect class="cls-4" x="393.87" y="31.37" width="27.31" height="13" rx="6.5" transform="translate(795.04 -93.82) rotate(155.92)"/></svg>