<?xml version="1.0" encoding="utf-8"?>
<!-- Generator: Adobe Illustrator 23.1.1, SVG Export Plug-In . SVG Version: 6.00 Build 0)  -->
<svg version="1.1" id="Layer_1" xmlns="http://www.w3.org/2000/svg" xmlns:xlink="http://www.w3.org/1999/xlink" x="0px" y="0px"
	 viewBox="0 0 775 664" style="enable-background:new 0 0 775 664;" xml:space="preserve">
<style type="text/css">
	.st0{fill:url(#SVGID_3_);}
	.st1{fill:#26262B;}
	.st2{fill:#FFFFFF;}
</style>
<g id="inspo">
	<defs>
		<rect id="SVGID_1_" x="998" y="3" width="313" height="500"/>
	</defs>
	<clipPath id="SVGID_2_">
		<use xlink:href="#SVGID_1_"  style="overflow:visible;"/>
	</clipPath>
	<g style="clip-path:url(#SVGID_2_);">
		
			<image style="overflow:visible;" width="640" height="500" xlink:href="../../../_mockup/h9rUppxznDIUVzFX8g9HsjfDjksT_-HHXtKjxU0uEW0.jpg"  transform="matrix(1 0 0 1 671 3)">
		</image>
	</g>
</g>
<image style="overflow:visible;" width="300" height="300" xlink:href="../../../_mockup/Motz-unwitting-card-mp3-musicbox-wool-mini-radio-small-speaker.jpg"  transform="matrix(0.64 0 0 0.64 930 711)">
</image>
<linearGradient id="SVGID_3_" gradientUnits="userSpaceOnUse" x1="330.5" y1="609" x2="330.5" y2="261">
	<stop  offset="0" style="stop-color:#4F9AFF"/>
	<stop  offset="3.283927e-02" style="stop-color:#5496FF"/>
	<stop  offset="0.2246" style="stop-color:#6C82FF"/>
	<stop  offset="0.3426" style="stop-color:#757BFF"/>
	<stop  offset="0.4911" style="stop-color:#8072FF"/>
	<stop  offset="0.7358" style="stop-color:#8B68FF"/>
	<stop  offset="0.9953" style="stop-color:#8F65FF"/>
</linearGradient>
<rect x="121" y="261" class="st0" width="419" height="348"/>
<path class="st1" d="M622,238H133c-21,0-38,17-38,38v327.3c0,21,17,38,38,38H622c21,0,38-17,38-38V276C660,255,643,238,622,238z
	 M540,552.8c0,18.5-15,33.6-33.6,33.6H166.9c-18.5,0-33.6-15-33.6-33.6V306.6c0-18.5,15-33.6,33.6-33.6h339.5
	c18.5,0,33.6,15,33.6,33.6V552.8z"/>
<circle class="st2" cx="602.5" cy="328.5" r="35.5"/>
<circle class="st2" cx="602.5" cy="415.5" r="35.5"/>
<rect x="560" y="490" class="st2" width="82" height="8"/>
<rect x="560" y="504" class="st2" width="82" height="8"/>
<rect x="560" y="518" class="st2" width="82" height="8"/>
<rect x="560" y="532" class="st2" width="82" height="8"/>
<rect x="560" y="546" class="st2" width="82" height="8"/>
<rect x="560" y="560" class="st2" width="82" height="8"/>
<g>
	<path class="st2" d="M221.5,477.1h-28c-7.8,0-14.2-2.8-19.2-8.4c-5-5.6-7.5-12.4-7.5-20.6v-67H196V436c0,5.4,0.5,9,1.5,10.7
		c1,1.7,3.4,2.6,7.1,2.6h16.9V477.1z"/>
	<path class="st2" d="M223.7,442.4c0-9.6,3.3-17.9,10-24.9c6.7-7,14.8-10.4,24.5-10.4c10.9,0,19.9,3.6,27,10.7
		c6.5,6.6,9.8,14.5,9.8,23.6c0,11.3-3.8,20.6-11.4,27.8c-7,6.6-15.5,9.9-25.3,9.9c-8.1,0-15.6-3-22.4-9
		C227.7,463,223.7,453.8,223.7,442.4z M250.7,442.4c0,2.8,0.9,5,2.6,6.6c1.7,1.6,3.7,2.4,6,2.4c2.4,0,4.5-0.8,6.2-2.4
		c1.7-1.6,2.6-3.8,2.6-6.6c0-2.5-0.9-4.4-2.6-5.8c-1.8-1.4-3.8-2.1-6.1-2.1c-2.3,0-4.3,0.7-6,2.1C251.5,438,250.7,439.9,250.7,442.4
		z"/>
	<path class="st2" d="M296.2,461.9c0-4.5,1.6-8.1,4.7-10.6c3.2-2.6,7-3.8,11.4-3.8c4.4,0,8.2,1.3,11.4,3.8c3.2,2.6,4.8,6.1,4.8,10.6
		v1.1c0,4.8-1.7,8.7-5.1,11.6c-3,2.6-6.7,3.9-11.1,3.9c-4.3,0-8-1.4-11-4.1C297.9,471.4,296.2,467.3,296.2,461.9z"/>
	<path class="st2" d="M330.8,477.1v-67.8c0-8.2,3-15,9.1-20.3c6.1-5.3,14.2-7.9,24.3-7.9h22.4v27.1H372c-4.6,0-7.6,0.8-8.9,2.3
		c-1.3,1.5-2,4.3-2,8.4h25.6v25h-25.6v33.1H330.8z"/>
	<path class="st2" d="M389.6,477.1l6.5-80.7c0-5,2.1-9.1,6.3-12.3c4.2-3.2,8.9-4.7,14.2-4.7c4.6,0,8.7,1.2,12.3,3.7
		c3.6,2.5,5.8,6.2,6.9,11.1l7.5,31.5L452,392c0.9-3.6,3.3-6.6,7.2-8.8c3.9-2.3,8.1-3.4,12.6-3.4c5.3,0,9.8,1.5,13.6,4.4
		c4.4,3.4,6.6,8.2,6.6,14.3l6.5,78.6h-29.2l-3.2-55.9l-11.9,49.4c-0.5,2.5-1.7,4.4-3.6,5.8c-1.9,1.4-4.1,2-6.5,2
		c-2.3,0-4.3-0.6-6.1-1.7c-1.8-1.1-2.8-2.8-3.2-5.1L422,421.3l-3.6,55.9H389.6z"/>
</g>
<rect x="454" y="136.5" transform="matrix(-0.408 0.913 -0.913 -0.408 930.9556 -315.2469)" class="st1" width="227.4" height="15.5"/>
<polygon class="st1" points="573,249 444,249 486.3,228 538.5,228 "/>
<rect x="341.2" y="136.7" transform="matrix(0.408 0.913 -0.913 0.408 401.1838 -329.7683)" class="st1" width="227.4" height="15.5"/>
<path class="st1" d="M619.3,46.7l-13.1-5.8c-3.3-1.5-4.7-5.3-3.3-8.6v0c1.5-3.3,5.3-4.7,8.6-3.3l13.1,5.8c3.3,1.5,4.7,5.3,3.3,8.6v0
	C626.4,46.7,622.5,48.1,619.3,46.7z"/>
<path class="st1" d="M403.6,46.7l13.1-5.8c3.3-1.5,4.7-5.3,3.3-8.6v0c-1.5-3.3-5.3-4.7-8.6-3.3l-13.1,5.8c-3.3,1.5-4.7,5.3-3.3,8.6
	l0,0C396.5,46.7,400.4,48.2,403.6,46.7z"/>
</svg>
